<svg xmlns="http://www.w3.org/2000/svg" viewBox="0 0 64 64" fill="none">
  <rect width="64" height="64" rx="14" fill="#0d1117"/>
  <path d="M32 12C20.954 12 12 20.954 12 32c0 8.837 5.724 16.327 13.675 18.974 1 .184 1.365-.434 1.365-.964 0-.475-.017-1.733-.027-3.403-5.563 1.208-6.735-2.68-6.735-2.68-.91-2.31-2.22-2.926-2.22-2.926-1.814-1.24.137-1.215.137-1.215 2.007.14 3.063 2.06 3.063 2.06 1.782 3.053 4.675 2.17 5.814 1.66.182-1.292.698-2.172 1.27-2.67-4.44-.505-9.11-2.22-9.11-9.884 0-2.183.78-3.969 2.058-5.367-.206-.505-.892-2.539.196-5.293 0 0 1.679-.538 5.5 2.05A19.146 19.146 0 0 1 32 19.88c1.7.008 3.413.23 5.013.672 3.818-2.588 5.495-2.05 5.495-2.05 1.09 2.754.404 4.788.198 5.293 1.28 1.398 2.056 3.184 2.056 5.367 0 7.684-4.677 9.373-9.132 9.868.718.618 1.358 1.838 1.358 3.704 0 2.674-.024 4.831-.024 5.487 0 .535.36 1.157 1.376.961C46.282 48.32 52 40.834 52 32c0-11.046-8.954-20-20-20z" fill="#e6edf3"/>
</svg>
